<svg width="22" height="22" viewBox="0 0 22 22" fill="none" xmlns="http://www.w3.org/2000/svg">
<path d="M1.83329 8.24992C2.56264 8.24992 3.26211 8.53965 3.77783 9.05537C4.29356 9.5711 4.58329 10.2706 4.58329 10.9999C4.58329 11.7293 4.29356 12.4287 3.77783 12.9445C3.26211 13.4602 2.56264 13.7499 1.83329 13.7499V15.5833C1.83329 16.0695 2.02644 16.5358 2.37026 16.8796C2.71408 17.2234 3.18039 17.4166 3.66662 17.4166H18.3333C18.8195 17.4166 19.2858 17.2234 19.6297 16.8796C19.9735 16.5358 20.1666 16.0695 20.1666 15.5833V13.7499C19.4373 13.7499 18.7378 13.4602 18.2221 12.9445C17.7064 12.4287 17.4166 11.7293 17.4166 10.9999C17.4166 10.2706 17.7064 9.5711 18.2221 9.05537C18.7378 8.53965 19.4373 8.24992 20.1666 8.24992V6.41659C20.1666 5.93035 19.9735 5.46404 19.6297 5.12022C19.2858 4.77641 18.8195 4.58325 18.3333 4.58325H3.66662C3.18039 4.58325 2.71408 4.77641 2.37026 5.12022C2.02644 5.46404 1.83329 5.93035 1.83329 6.41659V8.24992Z" stroke="#605050" strokeWidth="1.375" strokeLinecap="round"/>
<path d="M8.25 11.0001L10.0833 12.8334L13.75 9.16675" stroke="#605050" strokeWidth="1.375" strokeLinecap="round"/>
</svg>
