<svg width="22" height="22" viewBox="0 0 22 22" fill="none" xmlns="http://www.w3.org/2000/svg">
<path d="M19.2499 6.96675V18.7001C19.2499 19.0039 19.0037 19.2501 18.6999 19.2501H6.96661C6.66285 19.2501 6.41661 19.0039 6.41661 18.7001V6.96675C6.41661 6.66299 6.66285 6.41675 6.96661 6.41675H18.6999C19.0037 6.41675 19.2499 6.66299 19.2499 6.96675Z" stroke="#605050" strokeWidth="1.26042" strokeLinecap="round"/>
<path d="M16.4999 3.66675H4.21661C3.91285 3.66675 3.66661 3.91299 3.66661 4.21675V16.5001" stroke="#605050" strokeWidth="1.26042" strokeLinecap="round"/>
<path d="M6.41661 15.4L11.4073 13.75L19.2499 16.5" stroke="#605050" strokeWidth="1.26042" strokeLinecap="round"/>
<path d="M15.125 11.9167C14.3656 11.9167 13.75 11.3011 13.75 10.5417C13.75 9.78238 14.3656 9.16675 15.125 9.16675C15.8844 9.16675 16.5 9.78238 16.5 10.5417C16.5 11.3011 15.8844 11.9167 15.125 11.9167Z" stroke="#605050" strokeWidth="1.26042" strokeLinecap="round"/>
</svg>
