<svg width="18" height="18" viewBox="0 0 18 18" fill="none" xmlns="http://www.w3.org/2000/svg">
<path d="M13.6667 6.6665H4.33333C4.01117 6.6665 3.75 6.92767 3.75 7.24984V8.4165C3.75 8.73867 4.01117 8.99984 4.33333 8.99984H13.6667C13.9888 8.99984 14.25 8.73867 14.25 8.4165V7.24984C14.25 6.92767 13.9888 6.6665 13.6667 6.6665Z" stroke="white" strokeWidth="1.125" strokeLinecap="round"/>
<path d="M9 6.6665V14.2498" stroke="white" strokeWidth="1.125" strokeLinecap="round"/>
<path d="M13.0833 9V13.0833C13.0833 13.3928 12.9604 13.6895 12.7416 13.9083C12.5228 14.1271 12.226 14.25 11.9166 14.25H6.08329C5.77387 14.25 5.47713 14.1271 5.25833 13.9083C5.03954 13.6895 4.91663 13.3928 4.91663 13.0833V9" stroke="white" strokeWidth="1.125" strokeLinecap="round"/>
<path d="M6.37496 6.66668C5.98819 6.66668 5.61725 6.51303 5.34376 6.23954C5.07027 5.96605 4.91663 5.59512 4.91663 5.20834C4.91663 4.82157 5.07027 4.45064 5.34376 4.17715C5.61725 3.90366 5.98819 3.75001 6.37496 3.75001C6.93769 3.74021 7.48914 4.01325 7.95739 4.53352C8.42564 5.0538 8.78895 5.79716 8.99996 6.66668C9.21096 5.79716 9.57428 5.0538 10.0425 4.53352C10.5108 4.01325 11.0622 3.74021 11.625 3.75001C12.0117 3.75001 12.3827 3.90366 12.6562 4.17715C12.9296 4.45064 13.0833 4.82157 13.0833 5.20834C13.0833 5.59512 12.9296 5.96605 12.6562 6.23954C12.3827 6.51303 12.0117 6.66668 11.625 6.66668" stroke="white" strokeWidth="1.125" strokeLinecap="round"/>
</svg>
