<svg width="21" height="21" viewBox="0 0 21 21" fill="none" xmlns="http://www.w3.org/2000/svg">
<path d="M10.286 13.7141C12.1795 13.7141 13.7146 12.179 13.7146 10.2855C13.7146 8.39196 12.1795 6.85693 10.286 6.85693C8.39244 6.85693 6.85742 8.39196 6.85742 10.2855C6.85742 12.179 8.39244 13.7141 10.286 13.7141Z" stroke="white" stroke-width="1.28571" strokeLinecap="round" strokeLinejoin="round"/>
<path d="M2.57129 13.7141V6.857C2.57129 4.49007 4.49007 2.57129 6.857 2.57129H13.7141C16.0811 2.57129 17.9999 4.49007 17.9999 6.857V13.7141C17.9999 16.0811 16.0811 17.9999 13.7141 17.9999H6.857C4.49007 17.9999 2.57129 16.0811 2.57129 13.7141Z" stroke="white" stroke-width="1.28571"/>
<path d="M14.9995 5.57984L15.0081 5.57031" stroke="white" stroke-width="1.28571" strokeLinecap="round" strokeLinejoin="round"/>
</svg>
