<svg width="22" height="22" viewBox="0 0 22 22" fill="none" xmlns="http://www.w3.org/2000/svg">
<path d="M18.3333 7.33325H3.66667C3.16041 7.33325 2.75 7.74366 2.75 8.24992V10.0833C2.75 10.5895 3.16041 10.9999 3.66667 10.9999H18.3333C18.8396 10.9999 19.25 10.5895 19.25 10.0833V8.24992C19.25 7.74366 18.8396 7.33325 18.3333 7.33325Z" stroke="#605050" strokeWidth="1.375" strokeLinecap="round"/>
<path d="M11 7.33325V19.2499" stroke="#605050" strokeWidth="1.375" strokeLinecap="round"/>
<path d="M17.4167 11V17.4167C17.4167 17.9029 17.2235 18.3692 16.8797 18.713C16.5359 19.0568 16.0696 19.25 15.5833 19.25H6.41667C5.93044 19.25 5.46412 19.0568 5.1203 18.713C4.77649 18.3692 4.58333 17.9029 4.58333 17.4167V11" stroke="#605050" strokeWidth="1.375" strokeLinecap="round"/>
<path d="M6.875 7.33325C6.26721 7.33325 5.68432 7.0918 5.25455 6.66203C4.82477 6.23226 4.58333 5.64937 4.58333 5.04158C4.58333 4.43379 4.82477 3.8509 5.25455 3.42113C5.68432 2.99136 6.26721 2.74991 6.875 2.74991C7.75929 2.73451 8.62586 3.16357 9.36167 3.98114C10.0975 4.79872 10.6684 5.96687 11 7.33325C11.3316 5.96687 11.9025 4.79872 12.6383 3.98114C13.3741 3.16357 14.2407 2.73451 15.125 2.74991C15.7328 2.74991 16.3157 2.99136 16.7455 3.42113C17.1752 3.8509 17.4167 4.43379 17.4167 5.04158C17.4167 5.64937 17.1752 6.23226 16.7455 6.66203C16.3157 7.0918 15.7328 7.33325 15.125 7.33325" stroke="#605050" strokeWidth="1.375" strokeLinecap="round"/>
</svg>
