<svg width="22" height="22" viewBox="0 0 22 22" fill="none" xmlns="http://www.w3.org/2000/svg">
<path d="M9.16667 13.4385V14.929C9.16321 15.243 9.07911 15.551 8.92245 15.8232C8.76579 16.0954 8.54181 16.3228 8.272 16.4836C7.69921 16.9079 7.23327 17.4599 6.9112 18.0958C6.58912 18.7316 6.41979 19.4339 6.41667 20.1466" stroke="#605050" strokeWidth="1.375" strokeLinecap="round"/>
<path d="M12.8333 13.4385V14.929C12.8368 15.243 12.9209 15.551 13.0775 15.8232C13.2342 16.0954 13.4582 16.3228 13.728 16.4836C14.3008 16.9079 14.7667 17.4599 15.0888 18.0958C15.4109 18.7316 15.5802 19.4339 15.5833 20.1466" stroke="#605050" strokeWidth="1.375" strokeLinecap="round"/>
<path d="M16.5 8.25008H17.875C18.4828 8.25008 19.0657 8.00864 19.4955 7.57887C19.9252 7.1491 20.1667 6.5662 20.1667 5.95841C20.1667 5.35063 19.9252 4.76773 19.4955 4.33796C19.0657 3.90819 18.4828 3.66675 17.875 3.66675H16.5" stroke="#605050" strokeWidth="1.375" strokeLinecap="round"/>
<path d="M3.66667 20.1667H18.3333" stroke="#605050" strokeWidth="1.375" strokeLinecap="round"/>
<path d="M5.5 8.24992C5.5 9.70861 6.07946 11.1076 7.11091 12.139C8.14236 13.1705 9.54131 13.7499 11 13.7499C12.4587 13.7499 13.8576 13.1705 14.8891 12.139C15.9205 11.1076 16.5 9.70861 16.5 8.24992V2.74992C16.5 2.5068 16.4034 2.27365 16.2315 2.10174C16.0596 1.92983 15.8264 1.83325 15.5833 1.83325H6.41667C6.17355 1.83325 5.94039 1.92983 5.76849 2.10174C5.59658 2.27365 5.5 2.5068 5.5 2.74992V8.24992Z" stroke="#605050" strokeWidth="1.375" strokeLinecap="round"/>
<path d="M5.5 8.25008H4.125C3.51721 8.25008 2.93432 8.00864 2.50455 7.57887C2.07477 7.1491 1.83333 6.5662 1.83333 5.95841C1.83333 5.35063 2.07477 4.76773 2.50455 4.33796C2.93432 3.90819 3.51721 3.66675 4.125 3.66675H5.5" stroke="#605050" strokeWidth="1.375" strokeLinecap="round"/>
</svg>
